<?xml version="1.0" encoding="UTF-8"?>
<!DOCTYPE svg PUBLIC "-//W3C//DTD SVG 1.1//EN" "http://www.w3.org/Graphics/SVG/1.1/DTD/svg11.dtd">
<svg xmlns="http://www.w3.org/2000/svg" version="1.1" width="500px" height="500px" style="shape-rendering:geometricPrecision; text-rendering:geometricPrecision; image-rendering:optimizeQuality; fill-rule:evenodd; clip-rule:evenodd" xmlns:xlink="http://www.w3.org/1999/xlink">
<g><path style="opacity:0.956" fill="#fdfdfc" d="M 51.5,21.5 C 137.834,21.3333 224.167,21.5 310.5,22C 313.428,23.2598 315.261,25.4265 316,28.5C 316.5,40.1619 316.667,51.8286 316.5,63.5C 347.536,63.0463 378.536,63.5463 409.5,65C 427.599,71.1865 437.266,83.8531 438.5,103C 437.923,130.42 437.589,157.753 437.5,185C 448.833,185.333 460.167,185.667 471.5,186C 474,187.167 475.833,189 477,191.5C 477.667,277.5 477.667,363.5 477,449.5C 473.14,465.36 463.307,475.193 447.5,479C 362.167,479.667 276.833,479.667 191.5,479C 189,477.833 187.167,476 186,473.5C 185.5,462.172 185.333,450.838 185.5,439.5C 155.498,439.667 125.498,439.5 95.5,439C 78.782,435.282 68.282,425.116 64,408.5C 63.5,378.168 63.3334,347.835 63.5,317.5C 51.1622,317.667 38.8288,317.5 26.5,317C 24,315.833 22.1667,314 21,311.5C 20.3333,224.833 20.3333,138.167 21,51.5C 25.7881,35.8774 35.9547,25.8774 51.5,21.5 Z"/></g>
<g><path style="opacity:1" fill="#ed7005" d="M 307.5,72.5 C 272.361,48.5556 236.361,47.3889 199.5,69C 196.5,71.3333 193.5,73.6667 190.5,76C 151.667,114.833 112.833,153.667 74,192.5C 46.2986,230.087 45.4652,268.254 71.5,307C 71,307.5 70.5,308 70,308.5C 56.5488,308.264 43.0488,308.264 29.5,308.5C 29.3333,223.166 29.5,137.833 30,52.5C 34.1086,39.5269 42.9419,32.3602 56.5,31C 139.814,30.5082 222.981,30.3416 306,30.5C 307.481,44.3423 307.981,58.3423 307.5,72.5 Z"/></g>
<g><path style="opacity:1" fill="#fcdaba" d="M 307.5,72.5 C 307.5,72.8333 307.5,73.1667 307.5,73.5C 288.833,72.8318 270.333,72.8318 252,73.5C 251.5,95.1641 251.333,116.831 251.5,138.5C 251.5,138.833 251.5,139.167 251.5,139.5C 232.833,157.5 214.5,175.833 196.5,194.5C 195.167,194.5 194.5,195.167 194.5,196.5C 193.761,196.369 193.094,196.536 192.5,197C 174.475,214.944 156.809,233.11 139.5,251.5C 139.167,251.5 138.833,251.5 138.5,251.5C 116.649,251.649 94.8157,251.649 73,251.5C 72.5001,270.497 72.3334,289.497 72.5,308.5C 58.0688,309.822 43.7354,309.822 29.5,308.5C 43.0488,308.264 56.5488,308.264 70,308.5C 70.5,308 71,307.5 71.5,307C 45.4652,268.254 46.2986,230.087 74,192.5C 112.833,153.667 151.667,114.833 190.5,76C 193.5,73.6667 196.5,71.3333 199.5,69C 236.361,47.3889 272.361,48.5556 307.5,72.5 Z"/></g>
<g><path style="opacity:1" fill="#c2b1ca" d="M 307.5,73.5 C 339.931,72.1716 372.264,72.1716 404.5,73.5C 372.482,72.8407 340.816,73.5074 309.5,75.5C 308.883,75.3893 308.383,75.056 308,74.5C 307.5,114.165 307.333,153.832 307.5,193.5C 288.833,175.167 270.167,156.833 251.5,138.5C 251.333,116.831 251.5,95.1641 252,73.5C 270.333,72.8318 288.833,72.8318 307.5,73.5 Z"/></g>
<g><path style="opacity:1" fill="#63368b" d="M 404.5,73.5 C 416.236,76.0666 424.07,83.0666 428,94.5C 429.465,128.126 429.965,161.792 429.5,195.5C 419.333,195.385 409.333,195.385 399.5,195.5C 403.797,190.702 408.297,186.035 413,181.5C 413.667,180.5 413.667,179.5 413,178.5C 379.298,143.298 344.798,108.964 309.5,75.5C 340.816,73.5074 372.482,72.8407 404.5,73.5 Z"/></g>
<g><path style="opacity:1" fill="#c7bedd" d="M 309.5,75.5 C 344.798,108.964 379.298,143.298 413,178.5C 413.667,179.5 413.667,180.5 413,181.5C 408.297,186.035 403.797,190.702 399.5,195.5C 398.833,195.5 398.167,195.5 397.5,195.5C 367.95,195.595 338.283,195.261 308.5,194.5C 307.833,194.5 307.5,194.167 307.5,193.5C 307.333,153.832 307.5,114.165 308,74.5C 308.383,75.056 308.883,75.3893 309.5,75.5 Z"/></g>
<g><path style="opacity:1" fill="#ec7003" d="M 251.5,139.5 C 251.5,158.167 251.5,176.833 251.5,195.5C 233.044,195.598 214.711,195.265 196.5,194.5C 214.5,175.833 232.833,157.5 251.5,139.5 Z"/></g>
<g><path style="opacity:1" fill="#d7510c" d="M 196.5,194.5 C 214.711,195.265 233.044,195.598 251.5,195.5C 251.5,195.833 251.5,196.167 251.5,196.5C 251.5,214.833 251.5,233.167 251.5,251.5C 232.5,251.5 213.5,251.5 194.5,251.5C 194.5,233.167 194.5,214.833 194.5,196.5C 194.5,195.167 195.167,194.5 196.5,194.5 Z"/></g>
<g><path style="opacity:1" fill="#3d195b" d="M 307.5,251.5 C 288.833,251.833 270.167,252.167 251.5,252.5C 251.5,252.167 251.5,251.833 251.5,251.5C 251.5,233.167 251.5,214.833 251.5,196.5C 253.03,195.933 254.53,195.267 256,194.5C 271.967,195.472 289.134,195.805 307.5,195.5C 307.5,214.167 307.5,232.833 307.5,251.5 Z"/></g>
<g><path style="opacity:1" fill="#611b64" d="M 251.5,138.5 C 270.167,156.833 288.833,175.167 307.5,193.5C 307.5,194.167 307.833,194.5 308.5,194.5C 326.271,216.487 348.271,222.654 374.5,213C 383.488,208.838 391.155,203.004 397.5,195.5C 398.167,195.5 398.833,195.5 399.5,195.5C 409.333,195.385 419.333,195.385 429.5,195.5C 429.5,213.833 429.5,232.167 429.5,250.5C 388.906,251.494 348.239,251.827 307.5,251.5C 307.5,232.833 307.5,214.167 307.5,195.5C 289.134,195.805 271.967,195.472 256,194.5C 254.53,195.267 253.03,195.933 251.5,196.5C 251.5,196.167 251.5,195.833 251.5,195.5C 251.5,176.833 251.5,158.167 251.5,139.5C 251.5,139.167 251.5,138.833 251.5,138.5 Z"/></g>
<g><path style="opacity:1" fill="#c2b1ca" d="M 308.5,194.5 C 338.283,195.261 367.95,195.595 397.5,195.5C 391.155,203.004 383.488,208.838 374.5,213C 348.271,222.654 326.271,216.487 308.5,194.5 Z"/></g>
<g><path style="opacity:1" fill="#81a51c" d="M 429.5,195.5 C 442.833,195.5 456.167,195.5 469.5,195.5C 469.667,278.167 469.5,360.834 469,443.5C 467.689,454.478 462.189,462.478 452.5,467.5C 449.693,468.577 446.86,469.577 444,470.5C 360.47,470.305 277.304,469.972 194.5,469.5C 194.5,456.833 194.5,444.167 194.5,431.5C 195.391,432.11 196.391,432.443 197.5,432.5C 221.61,450.219 248.276,455.052 277.5,447C 291.525,442.825 303.858,435.825 314.5,426C 347.667,392.5 380.833,359 414,325.5C 414.667,324.833 414.667,324.167 414,323.5C 405.167,314.667 396.333,305.833 387.5,297C 366.015,281.231 344.015,280.565 321.5,295C 316.665,299.003 311.998,303.17 307.5,307.5C 307.5,289.167 307.5,270.833 307.5,252.5C 348.514,253.161 389.18,252.494 429.5,250.5C 429.5,232.167 429.5,213.833 429.5,195.5 Z"/></g>
<g><path style="opacity:1" fill="#ed7005" d="M 194.5,196.5 C 194.5,214.833 194.5,233.167 194.5,251.5C 194.167,251.5 193.833,251.5 193.5,251.5C 193.167,251.5 192.833,251.5 192.5,251.5C 174.833,251.5 157.167,251.5 139.5,251.5C 156.809,233.11 174.475,214.944 192.5,197C 193.094,196.536 193.761,196.369 194.5,196.5 Z"/></g>
<g><path style="opacity:1" fill="#6e6b2e" d="M 429.5,250.5 C 389.18,252.494 348.514,253.161 307.5,252.5C 307.5,252.167 307.5,251.833 307.5,251.5C 348.239,251.827 388.906,251.494 429.5,250.5 Z"/></g>
<g><path style="opacity:1" fill="#c2d9c3" d="M 138.5,251.5 C 138.328,252.492 138.662,253.158 139.5,253.5C 157.807,271.473 176.14,289.473 194.5,307.5C 194.5,307.833 194.5,308.167 194.5,308.5C 154.167,308.5 113.833,308.5 73.5,308.5C 73.1667,308.5 72.8333,308.5 72.5,308.5C 72.3334,289.497 72.5001,270.497 73,251.5C 94.8157,251.649 116.649,251.649 138.5,251.5 Z"/></g>
<g><path style="opacity:1" fill="#706c30" d="M 138.5,251.5 C 138.833,251.5 139.167,251.5 139.5,251.5C 157.167,251.5 174.833,251.5 192.5,251.5C 174.833,252.167 157.167,252.833 139.5,253.5C 138.662,253.158 138.328,252.492 138.5,251.5 Z"/></g>
<g><path style="opacity:1" fill="#d7510b" d="M 307.5,251.5 C 307.5,251.833 307.5,252.167 307.5,252.5C 307.5,270.833 307.5,289.167 307.5,307.5C 307.5,308.167 307.167,308.5 306.5,308.5C 288.606,307.621 270.606,307.621 252.5,308.5C 251.514,289.91 251.18,271.243 251.5,252.5C 270.167,252.167 288.833,251.833 307.5,251.5 Z"/></g>
<g><path style="opacity:1" fill="#1a8e40" d="M 192.5,251.5 C 192.833,251.5 193.167,251.5 193.5,251.5C 194.486,270.09 194.82,288.757 194.5,307.5C 176.14,289.473 157.807,271.473 139.5,253.5C 157.167,252.833 174.833,252.167 192.5,251.5 Z"/></g>
<g><path style="opacity:1" fill="#06642f" d="M 193.5,251.5 C 193.833,251.5 194.167,251.5 194.5,251.5C 213.5,251.5 232.5,251.5 251.5,251.5C 251.5,251.833 251.5,252.167 251.5,252.5C 251.18,271.243 251.514,289.91 252.5,308.5C 252.167,308.5 251.833,308.5 251.5,308.5C 232.833,308.5 214.167,308.5 195.5,308.5C 195.167,308.5 194.833,308.5 194.5,308.5C 194.5,308.167 194.5,307.833 194.5,307.5C 194.82,288.757 194.486,270.09 193.5,251.5 Z"/></g>
<g><path style="opacity:1" fill="#dceac8" d="M 197.5,432.5 C 197.389,431.883 197.056,431.383 196.5,431C 214.83,430.5 233.164,430.333 251.5,430.5C 251.178,408.425 251.511,386.425 252.5,364.5C 270.136,345.53 288.136,326.863 306.5,308.5C 307.167,308.5 307.5,308.167 307.5,307.5C 311.998,303.17 316.665,299.003 321.5,295C 344.015,280.565 366.015,281.231 387.5,297C 396.333,305.833 405.167,314.667 414,323.5C 414.667,324.167 414.667,324.833 414,325.5C 380.833,359 347.667,392.5 314.5,426C 303.858,435.825 291.525,442.825 277.5,447C 248.276,455.052 221.61,450.219 197.5,432.5 Z"/></g>
<g><path style="opacity:1" fill="#03b6e6" d="M 72.5,308.5 C 72.8333,308.5 73.1667,308.5 73.5,308.5C 112.937,349.437 152.937,389.937 193.5,430C 161.835,430.5 130.168,430.667 98.5,430.5C 85.4343,427.936 76.9343,420.269 73,407.5C 72.5,374.502 72.3334,341.502 72.5,308.5 Z"/></g>
<g><path style="opacity:1" fill="#c7e9f6" d="M 73.5,308.5 C 113.833,308.5 154.167,308.5 194.5,308.5C 194.5,349.5 194.5,390.5 194.5,431.5C 162.329,431.832 130.329,431.498 98.5,430.5C 130.168,430.667 161.835,430.5 193.5,430C 152.937,389.937 112.937,349.437 73.5,308.5 Z"/></g>
<g><path style="opacity:1" fill="#c2d9c2" d="M 194.5,308.5 C 194.833,308.5 195.167,308.5 195.5,308.5C 213.5,327.167 231.833,345.5 250.5,363.5C 250.842,364.338 251.508,364.672 252.5,364.5C 251.511,386.425 251.178,408.425 251.5,430.5C 233.164,430.333 214.83,430.5 196.5,431C 197.056,431.383 197.389,431.883 197.5,432.5C 196.391,432.443 195.391,432.11 194.5,431.5C 194.5,390.5 194.5,349.5 194.5,308.5 Z"/></g>
<g><path style="opacity:1" fill="#198e40" d="M 195.5,308.5 C 214.167,308.5 232.833,308.5 251.5,308.5C 251.83,327.008 251.497,345.341 250.5,363.5C 231.833,345.5 213.5,327.167 195.5,308.5 Z"/></g>
<g><path style="opacity:1" fill="#80a41c" d="M 306.5,308.5 C 288.136,326.863 270.136,345.53 252.5,364.5C 251.508,364.672 250.842,364.338 250.5,363.5C 251.497,345.341 251.83,327.008 251.5,308.5C 251.833,308.5 252.167,308.5 252.5,308.5C 270.606,307.621 288.606,307.621 306.5,308.5 Z"/></g>
<g><path style="opacity:1" fill="#d3ddb8" d="M 452.5,467.5 C 450.779,469.694 448.445,470.861 445.5,471C 403.667,471.167 361.833,471.333 320,471.5C 277.828,471.5 235.995,470.833 194.5,469.5C 277.304,469.972 360.47,470.305 444,470.5C 446.86,469.577 449.693,468.577 452.5,467.5 Z"/></g>
</svg>
